<?xml version="1.0" standalone="no"?>
<!DOCTYPE svg PUBLIC "-//W3C//DTD SVG 20010904//EN"
 "http://www.w3.org/TR/2001/REC-SVG-20010904/DTD/svg10.dtd">
<svg version="1.0" xmlns="http://www.w3.org/2000/svg"
 width="1280.000000pt" height="1148.000000pt" viewBox="0 0 1280.000000 1148.000000"
 preserveAspectRatio="xMidYMid meet">
<metadata>
Created by potrace 1.15, written by Peter Selinger 2001-2017
</metadata>
<g transform="translate(0.000000,1148.000000) scale(0.100000,-0.100000)"
fill="#000000" stroke="none">
<path d="M6436 11461 c-101 -23 -231 -81 -321 -146 -83 -59 -202 -187 -257
-277 -25 -40 -342 -635 -705 -1323 -364 -687 -1011 -1911 -1438 -2720 -428
-808 -1129 -2134 -1558 -2945 -428 -811 -817 -1545 -862 -1630 -139 -260 -173
-332 -201 -425 -24 -80 -27 -106 -28 -245 -1 -179 13 -255 74 -385 109 -237
310 -396 580 -461 72 -18 289 -19 4810 -22 3104 -2 4773 1 4845 7 191 18 330
67 470 166 138 98 255 272 310 462 50 170 44 371 -15 553 -21 65 -212 432
-718 1381 -1303 2446 -3428 6435 -3785 7104 -137 259 -269 500 -292 536 -110
170 -302 306 -510 359 -119 31 -287 35 -399 11z"/>
</g>
</svg>
